PathFileType	4	(X/Y/Z)	C:\Users\WrightLab\Desktop\Jo\P5V119.trc
DataRate	CameraRate	NumFrames	NumMarkers	Units	OrigDataRate	OrigDataStartFrame	OrigNumFrames
100.00	100.00	       18	19	mm	100.00	356	       569
Frame#	Time	Headset_Front			Headset_Back			Headset_Left			Headset_Right			Left_Shoulder			Right_Shoulder			Sternum			C7			Left Elbow			Right Elbow			Left Wrist			Right Wrist			Left ASIS			Right ASIS			S2			Left Knee			Right Knee			Left Ankle			Right Ankle			
		X1	Y1	Z1	X2	Y2	Z2	X3	Y3	Z3	X4	Y4	Z4	X5	Y5	Z5	X6	Y6	Z6	X7	Y7	Z7	X8	Y8	Z8	X9	Y9	Z9	X10	Y10	Z10	X11	Y11	Z11	X12	Y12	Z12	X13	Y13	Z13	X14	Y14	Z14	X15	Y15	Z15	X16	Y16	Z16	X17	Y17	Z17	X18	Y18	Z18	X19	Y19	Z19	

356	3.550	112.40871	1652.12573	776.40448							-36.66930	1679.66992	753.72070	125.81306	1521.67310	432.30136	-168.63362	1478.43591	720.36017	42.80643	1351.15503	656.94659	-111.02908	1533.06982	495.75894	174.70090	1250.23804	338.29321	-289.71133	1220.09802	706.10669	228.07022	1161.16504	534.90308	-142.34053	1082.65552	838.75555	163.85216	959.31403	565.40344	-55.39177	974.10834	740.78473	-105.25108	983.24237	418.08548	176.63835	524.63354	480.21744	-20.21797	506.90479	771.15289	92.66293	108.73253	470.56165	-268.77814	288.49429	530.26056	
357	3.560	116.38823	1654.28284	785.57996							-31.91295	1680.86890	761.28015	133.72241	1523.31665	442.34485	-163.08649	1480.07068	726.77600	48.88935	1353.15283	665.31189	-103.81954	1534.40662	503.10086	184.08238	1252.48804	348.89471	-283.93155	1221.38647	710.69751	235.59938	1163.24988	545.94781	-137.98251	1083.51282	844.83661	170.58917	961.32330	574.22095	-52.33282	975.14661	749.07550	-97.60119	984.78046	425.43518	180.96461	525.89862	483.92923	-4.86340	517.94427	789.25330	92.78701	108.76167	471.33084	-249.49269	288.51129	545.93903	
358	3.570	122.09217	1655.82153	794.30328							-27.90291	1681.96436	769.14246	141.75490	1524.72754	451.60001	-157.82045	1481.38086	733.41840	54.62805	1354.64417	673.44165	-96.46136	1535.73657	510.10007	194.22046	1253.48682	360.37631	-278.64282	1222.83228	715.48065	243.08707	1166.04529	557.37329	-133.02689	1084.87805	849.91779	174.41621	961.75256	583.10242	-48.93096	975.92230	757.51874	-90.58714	986.35303	433.00870	185.49236	527.57672	489.63409	9.31686	528.19763	804.81573	93.01693	109.30499	471.91956	-229.99995	286.82303	561.64716	
359	3.580	111.97546	1638.82544	743.06854							-22.74377	1682.85742	776.62762	149.12376	1526.52002	460.20053	-152.54076	1482.70178	740.11700	59.89069	1355.65833	682.15948	-89.13362	1536.97449	517.05682	203.32483	1254.88965	370.84970	-273.56351	1223.79688	720.57867	250.44994	1168.02466	569.45630	-129.03043	1086.16602	855.49170	182.52229	963.40594	591.95880	-43.46972	978.95081	765.49463	-83.77438	987.72858	440.96982	188.96785	528.63745	495.92587	23.10369	538.01556	818.51123	91.86913	109.52376	473.57745	-210.17332	284.39453	577.65759	
360	3.590	130.69658	1658.98267	812.07745							-17.91776	1684.25439	784.44189	157.00960	1527.46509	469.95853	-148.47209	1484.50769	747.94946	65.58704	1356.85059	691.13257	-82.16265	1538.11621	524.32910	212.23424	1255.62256	382.15396	-268.59332	1225.13403	725.73651	256.72867	1169.95215	580.59033	-124.47520	1087.17151	861.34760	188.60027	964.21710	600.52661	-40.05854	978.31567	772.20239	-77.74895	989.08698	448.61356	192.89793	529.60461	503.88086	36.63588	547.39929	832.27985	91.74213	110.06801	474.24118	-190.23576	280.73889	593.36102	
361	3.600	134.64500	1660.32507	821.65967							-13.87291	1685.92041	792.29565	164.25636	1528.64697	479.20859	-142.17178	1484.81067	753.34698	71.33371	1357.78601	699.18079	-75.15446	1538.93201	531.65515	221.36264	1256.56775	392.21997	-263.85513	1225.89172	730.74518	263.72592	1171.60632	592.91193	-119.97870	1087.98975	867.47632	194.23677	965.18573	610.04956	-35.39433	979.24664	780.11932	-71.67616	989.81982	456.95520	197.22145	530.39288	512.83148	49.33234	555.69318	846.05621	91.72163	110.57783	474.88690	-170.76532	276.36169	610.02515	
362	3.610										-9.01871	1686.60840	800.11737	172.00412	1529.26880	489.07755	-136.86908	1485.35669	759.97272	77.12256	1358.01306	707.37738	-68.06922	1540.04199	538.86566	230.51170	1257.40588	402.94543	-258.56787	1226.61646	735.45056	270.61740	1173.13489	603.94006	-115.91771	1088.64612	873.37439	200.12682	965.69910	619.02625	-31.37947	980.10950	787.86658	-66.55488	990.89001	465.07224	200.72595	530.78760	522.42487	61.69926	560.89630	859.36798	91.37359	110.91701	474.94824	-150.37057	271.34042	627.40692	
363	3.620	142.97757	1662.40259	839.87036							-5.15471	1687.21582	808.10602	179.15192	1530.04492	497.48520	-132.76251	1485.99207	767.71411	82.41135	1358.72131	715.70111	-61.07073	1540.81921	546.47766	239.59793	1257.88062	414.73822	-254.06464	1227.17932	741.36957	277.56381	1174.69800	615.22607	-111.66789	1089.23291	879.55359	204.36835	964.79913	628.11078	-26.33599	980.58984	795.91974	-61.54281	992.04486	473.75983	204.47430	530.21655	532.77740	72.70052	565.20447	872.44843	91.35281	111.61696	475.29236	-130.49098	265.35428	644.60919	
364	3.630	146.81390	1663.18042	849.38159							-1.01597	1687.09485	816.00562	186.66191	1530.50391	507.09988	-127.92069	1486.41309	774.87097	88.12022	1358.89783	724.66266	-53.85375	1540.91101	553.50354	248.60988	1258.39001	425.43668	-248.26645	1227.38489	746.55273	284.26807	1175.71069	627.11151	-107.25103	1089.55713	885.64880	209.30591	965.44159	636.20795	-20.16181	982.10400	802.36969	-56.28163	993.02112	481.83014	207.90436	530.24890	543.60699	81.43180	570.18378	884.76508	91.25709	112.76841	475.68417	-110.33108	259.24741	662.02234	
365	3.640	150.41719	1663.64160	858.90179							3.47839	1686.95593	823.73187	193.72346	1530.29065	517.28009	-123.25134	1486.79053	782.08051	94.08557	1359.37170	732.68359	-47.12193	1541.20447	561.33752	256.53406	1258.38147	436.16644	-243.27263	1227.99268	752.45050	291.57114	1176.59387	639.80072	-103.06370	1089.89502	891.74377	216.02563	965.54120	644.04254	-16.42829	981.02661	810.80115	-50.69976	993.46844	489.92581	211.22157	529.37280	554.12140	90.49306	576.44006	897.37280	91.15192	113.51839	476.18015	-89.53575	251.57413	680.22662	
366	3.650	153.96735	1664.07959	868.38165							7.46868	1686.83691	831.66559	200.93498	1530.65796	526.73059	-117.37927	1486.73584	788.59204	99.41273	1359.58679	742.00061	-40.77899	1541.59497	569.84296	266.41049	1258.67419	447.51190	-238.46700	1228.06531	757.99036	298.27869	1178.16418	650.97040	-98.73885	1089.71191	898.20673	221.03191	965.47925	652.72626	-11.43226	980.56024	818.65399	-45.73641	994.05206	498.78342	212.66295	528.88348	564.70313	99.99912	583.26611	910.33911	91.17323	114.38928	476.54449	-68.97504	243.72339	699.22723	
367	3.660										11.00446	1687.23694	839.78760	208.14014	1530.64880	536.19562	-112.10267	1486.78491	795.46466	104.46811	1359.38489	750.29181	-34.04826	1541.61890	577.56024	274.10962	1258.60168	459.00916	-233.60896	1228.09192	763.80286	304.87247	1178.64966	663.29810	-94.05137	1089.30151	905.10327	225.97015	964.58002	661.44434	-7.13497	980.84564	826.76581	-40.20887	994.83331	506.54681	216.26823	530.26782	573.10364	108.82291	589.39758	922.83740	91.40759	114.76273	477.50803	-48.99864	235.41806	719.32690	
368	3.670	160.94878	1664.10938	887.59943							15.05195	1687.20630	847.82074	214.94038	1530.39832	545.89728	-107.90073	1486.15479	802.77722	109.69550	1359.01038	759.02466	-27.28669	1541.50525	585.56995	282.02734	1258.37842	469.31662	-228.52379	1228.55481	769.72308	311.12848	1179.21606	675.26788	-90.27715	1088.90576	911.92212	232.48061	964.88507	669.73315	-1.93621	980.24640	834.24194	-34.45801	995.26556	514.87122	217.30467	530.50867	580.89636	117.22850	594.83398	934.76331	91.25598	115.14258	478.27948	-28.36473	227.01323	739.00580	
369	3.680										19.35115	1686.99036	855.75970	222.14967	1530.12329	556.17053	-103.22160	1485.41760	810.24054	114.97227	1358.83167	767.99097	-20.61187	1541.29382	593.62885	290.97513	1258.68091	481.10236	-223.95297	1227.90869	776.22540	316.55490	1179.08154	686.56055	-85.92278	1088.36963	918.30383	237.47202	964.06378	677.92413	2.67445	979.67615	841.90295	-28.36244	995.50452	522.94904	219.82233	529.41766	588.39996	124.52555	600.21301	945.90594	90.99950	115.61800	478.73471	-7.75847	218.22064	760.35883	
370	3.690										22.58244	1686.76062	864.04596	228.81200	1529.84753	567.00287	-98.43120	1485.44031	817.91528	120.88340	1358.34692	777.15082	-14.07567	1540.96997	601.88855	298.32599	1257.59656	493.43161	-218.22760	1227.55981	782.29108	323.10461	1179.94177	698.66083	-81.62449	1087.97144	925.06403	243.23212	963.64221	687.42792	7.06812	979.35919	849.52142	-22.63752	995.56647	530.86255	222.01050	529.91840	597.29333	131.13457	603.26898	955.63934	90.54829	117.25423	479.81021	13.22525	208.59695	781.12048	
371	3.700	171.01411	1663.70435	917.10620							25.47582	1686.28027	872.48273	235.53085	1529.34106	576.15967	-93.02982	1485.14319	825.50909	125.25882	1357.86987	786.41193	-7.42931	1540.61572	610.12433	306.17416	1257.30847	504.55032	-213.38002	1226.87415	788.32898	329.01938	1179.44788	711.07208	-78.03304	1086.87683	932.21295	248.03531	962.92651	697.33704	12.33308	980.02277	856.89185	-16.79753	995.52216	539.29059	223.60242	527.82196	605.48248	137.35768	606.99829	966.18982	91.16429	118.05249	480.31604	34.37682	199.61728	803.61316	
372	3.710										29.79606	1685.46814	880.66388	242.43779	1529.00671	586.75116	-87.71607	1484.97632	833.02496	131.13150	1357.03223	795.44257	-1.04125	1540.23340	618.76813	313.43286	1257.01208	516.31799	-208.18614	1226.35266	795.31824	334.95734	1179.51563	722.50134	-73.78225	1086.20886	939.58099	253.74718	962.74048	707.01349	15.86744	977.75702	864.92084	-10.84210	994.98920	547.20581	227.19577	526.88385	613.82654	142.97858	608.21094	975.41956	91.50417	118.96970	480.92316	55.95379	190.61858	826.43134	
373	3.720										32.83820	1685.35815	889.18536	248.77885	1528.36548	597.69342	-82.90245	1483.92444	840.87164	136.22681	1356.86475	804.99670	5.49458	1539.68835	627.37390	321.10681	1256.31201	527.49274	-202.45563	1225.15540	801.64581	340.16925	1179.30920	735.01501	-69.65425	1085.14722	947.14697	259.09213	962.05859	717.41016	20.26828	976.82501	872.44739	-4.91395	994.84918	554.77722	229.93672	524.72595	622.08215	147.97208	608.61530	984.03827	91.68797	119.65718	481.27502	76.39510	181.86911	849.23206	
